<svg xmlns="http://www.w3.org/2000/svg" width="26.76" height="18.31" viewBox="0 0 26.76 18.31"><g id="Grupo_4226" data-name="Grupo 4226" transform="translate(0 0.001)"><rect id="Rect&#xE1;ngulo_2270" data-name="Rect&#xE1;ngulo 2270" width="26.76" height="18.31" transform="translate(0 -0.001)" fill="#fff"></rect><rect id="Rect&#xE1;ngulo_2271" data-name="Rect&#xE1;ngulo 2271" width="26.76" height="1.408" transform="translate(0 16.901)" fill="#b22234"></rect><rect id="Rect&#xE1;ngulo_2272" data-name="Rect&#xE1;ngulo 2272" width="26.76" height="1.408" transform="translate(0 14.084)" fill="#b22234"></rect><rect id="Rect&#xE1;ngulo_2273" data-name="Rect&#xE1;ngulo 2273" width="26.76" height="1.408" transform="translate(0 11.267)" fill="#b22234"></rect><rect id="Rect&#xE1;ngulo_2274" data-name="Rect&#xE1;ngulo 2274" width="26.76" height="1.408" transform="translate(0 8.45)" fill="#b22234"></rect><rect id="Rect&#xE1;ngulo_2275" data-name="Rect&#xE1;ngulo 2275" width="26.76" height="1.408" transform="translate(0 5.634)" fill="#b22234"></rect><rect id="Rect&#xE1;ngulo_2276" data-name="Rect&#xE1;ngulo 2276" width="26.76" height="1.408" transform="translate(0 2.817)" fill="#b22234"></rect><rect id="Rect&#xE1;ngulo_2277" data-name="Rect&#xE1;ngulo 2277" width="26.76" height="1.409" transform="translate(0 -0.001)" fill="#b22234"></rect><rect id="Rect&#xE1;ngulo_2278" data-name="Rect&#xE1;ngulo 2278" width="13.38" height="9.859" transform="translate(0 -0.001)" fill="#3c3b6e"></rect><path id="Trazado_10788" data-name="Trazado 10788" d="M11.861,8.3l-.391-.011.323.222-.132.369.311-.239.31.239-.131-.369.323-.222-.392.011-.11-.375Z" fill="#fff"></path><path id="Trazado_10789" data-name="Trazado 10789" d="M9.748,8.3l-.391-.011.323.222-.132.369.311-.239.31.239-.13-.369.323-.222L9.969,8.3l-.11-.375Z" fill="#fff"></path><path id="Trazado_10790" data-name="Trazado 10790" d="M7.636,8.3l-.392-.011.324.222-.132.369.311-.239.31.239-.131-.369.323-.222L7.857,8.3l-.11-.375Z" fill="#fff"></path><path id="Trazado_10791" data-name="Trazado 10791" d="M5.523,8.3l-.391-.011.323.222-.132.369.311-.239.31.239-.131-.369.323-.222L5.744,8.3l-.11-.375Z" fill="#fff"></path><path id="Trazado_10792" data-name="Trazado 10792" d="M3.41,8.3l-.391-.011.323.222-.132.369.311-.239.31.239L3.7,8.509l.323-.222L3.631,8.3l-.11-.375Z" fill="#fff"></path><path id="Trazado_10793" data-name="Trazado 10793" d="M1.3,8.3.906,8.287l.324.222L1.1,8.878l.311-.239.31.239-.131-.369.323-.222L1.519,8.3l-.11-.375Z" fill="#fff"></path><path id="Trazado_10794" data-name="Trazado 10794" d="M10.8,7.418l-.392-.011.324.222L10.6,8l.311-.239.31.239-.131-.369.323-.222-.392.011-.11-.375Z" fill="#fff"></path><path id="Trazado_10795" data-name="Trazado 10795" d="M8.692,7.418,8.3,7.407l.323.222L8.492,8,8.8,7.759,9.113,8l-.131-.369.323-.222-.392.011L8.8,7.043Z" fill="#fff"></path><path id="Trazado_10796" data-name="Trazado 10796" d="M6.579,7.418l-.391-.011.323.222L6.379,8l.311-.239L7,8l-.13-.369.322-.222L6.8,7.418l-.11-.375Z" fill="#fff"></path><path id="Trazado_10797" data-name="Trazado 10797" d="M4.467,7.418l-.392-.011.324.222L4.267,8l.311-.239L4.888,8l-.131-.369.323-.222-.392.011-.11-.375Z" fill="#fff"></path><path id="Trazado_10798" data-name="Trazado 10798" d="M2.354,7.418l-.392-.011.323.222L2.154,8l.311-.239L2.775,8l-.131-.369.323-.222-.392.011-.11-.375Z" fill="#fff"></path><path id="Trazado_10799" data-name="Trazado 10799" d="M11.861,6.537l-.391-.011.323.222-.132.369.311-.239.31.239-.131-.369.323-.222-.392.011-.11-.375Z" fill="#fff"></path><path id="Trazado_10800" data-name="Trazado 10800" d="M9.748,6.537l-.391-.011.323.222-.132.369.311-.239.31.239-.13-.369.323-.222-.393.011-.11-.375Z" fill="#fff"></path><path id="Trazado_10801" data-name="Trazado 10801" d="M7.636,6.537l-.392-.011.324.222-.132.369.311-.239.31.239-.131-.369.323-.222-.392.011-.11-.375Z" fill="#fff"></path><path id="Trazado_10802" data-name="Trazado 10802" d="M5.523,6.537l-.391-.011.323.222-.132.369.311-.239.31.239-.131-.369.323-.222-.392.011-.11-.375Z" fill="#fff"></path><path id="Trazado_10803" data-name="Trazado 10803" d="M3.41,6.537l-.391-.011.323.222-.132.369.311-.239.31.239L3.7,6.748l.323-.222-.392.011-.11-.375Z" fill="#fff"></path><path id="Trazado_10804" data-name="Trazado 10804" d="M1.3,6.537.906,6.526l.324.222L1.1,7.117l.311-.239.31.239-.131-.369.323-.222-.392.011-.11-.375Z" fill="#fff"></path><path id="Trazado_10805" data-name="Trazado 10805" d="M10.8,5.657l-.392-.011.324.222-.132.369L10.915,6l.31.239-.131-.369.323-.222-.392.011-.11-.375Z" fill="#fff"></path><path id="Trazado_10806" data-name="Trazado 10806" d="M8.692,5.657,8.3,5.646l.323.222-.132.369L8.8,6l.31.239-.131-.369.323-.222-.392.011L8.8,5.282Z" fill="#fff"></path><path id="Trazado_10807" data-name="Trazado 10807" d="M6.579,5.657l-.391-.011.323.222-.132.369L6.69,6,7,6.237l-.13-.369.322-.222L6.8,5.657l-.11-.375Z" fill="#fff"></path><path id="Trazado_10808" data-name="Trazado 10808" d="M4.467,5.657l-.392-.011.324.222-.132.369L4.578,6l.31.239-.131-.369.323-.222-.392.011-.11-.375Z" fill="#fff"></path><path id="Trazado_10809" data-name="Trazado 10809" d="M2.354,5.657l-.392-.011.323.222-.131.369L2.465,6l.31.239-.131-.369.323-.222-.392.011-.11-.375Z" fill="#fff"></path><path id="Trazado_10810" data-name="Trazado 10810" d="M11.861,4.777l-.391-.011.323.222-.132.369.311-.239.31.239-.131-.369.323-.222-.392.011-.11-.376Z" fill="#fff"></path><path id="Trazado_10811" data-name="Trazado 10811" d="M9.748,4.777l-.391-.011.323.222-.132.369.311-.239.31.239-.13-.369.323-.222-.393.011L9.859,4.4Z" fill="#fff"></path><path id="Trazado_10812" data-name="Trazado 10812" d="M7.636,4.777l-.392-.011.324.222-.132.369.311-.239.31.239-.131-.369.323-.222-.392.011L7.747,4.4Z" fill="#fff"></path><path id="Trazado_10813" data-name="Trazado 10813" d="M5.523,4.777l-.391-.011.323.222-.132.369.311-.239.31.239-.131-.369.323-.222-.392.011L5.634,4.4Z" fill="#fff"></path><path id="Trazado_10814" data-name="Trazado 10814" d="M3.41,4.777l-.391-.011.323.222-.132.369.311-.239.31.239L3.7,4.988l.323-.222-.392.011L3.521,4.4Z" fill="#fff"></path><path id="Trazado_10815" data-name="Trazado 10815" d="M1.3,4.777.906,4.766l.324.222L1.1,5.357l.311-.239.31.239-.131-.369.323-.222-.392.011L1.409,4.4Z" fill="#fff"></path><path id="Trazado_10816" data-name="Trazado 10816" d="M10.8,3.9l-.392-.011.324.222-.132.369.311-.239.31.239-.131-.369.323-.222-.392.011-.11-.376Z" fill="#fff"></path><path id="Trazado_10817" data-name="Trazado 10817" d="M8.692,3.9,8.3,3.886l.323.222-.132.369L8.8,4.238l.31.239-.131-.369.323-.222L8.913,3.9,8.8,3.521Z" fill="#fff"></path><path id="Trazado_10818" data-name="Trazado 10818" d="M6.579,3.9l-.391-.011.323.222-.132.369.311-.239L7,4.477l-.13-.369.322-.222L6.8,3.9l-.11-.376Z" fill="#fff"></path><path id="Trazado_10819" data-name="Trazado 10819" d="M4.467,3.9l-.392-.011.324.222-.132.369.311-.239.31.239-.131-.369.323-.222L4.688,3.9l-.11-.376Z" fill="#fff"></path><path id="Trazado_10820" data-name="Trazado 10820" d="M2.354,3.9l-.392-.011.323.222-.131.369.311-.239.31.239-.131-.369.323-.222L2.575,3.9l-.11-.376Z" fill="#fff"></path><path id="Trazado_10821" data-name="Trazado 10821" d="M11.861,3.017l-.391-.011.323.222-.132.369.311-.239.31.239-.131-.369.323-.222-.392.011-.11-.376Z" fill="#fff"></path><path id="Trazado_10822" data-name="Trazado 10822" d="M9.748,3.017l-.391-.011.323.222L9.548,3.6l.311-.239.31.239-.13-.369.323-.222-.393.011-.11-.376Z" fill="#fff"></path><path id="Trazado_10823" data-name="Trazado 10823" d="M7.636,3.017l-.392-.011.324.222L7.436,3.6l.311-.239.31.239-.131-.369.323-.222-.392.011-.11-.376Z" fill="#fff"></path><path id="Trazado_10824" data-name="Trazado 10824" d="M5.523,3.017l-.391-.011.323.222L5.323,3.6l.311-.239.31.239-.131-.369.323-.222-.392.011-.11-.376Z" fill="#fff"></path><path id="Trazado_10825" data-name="Trazado 10825" d="M3.41,3.017l-.391-.011.323.222L3.21,3.6l.311-.239.31.239L3.7,3.228l.323-.222-.392.011-.11-.376Z" fill="#fff"></path><path id="Trazado_10826" data-name="Trazado 10826" d="M1.3,3.017.906,3.006l.324.222L1.1,3.6l.311-.239.31.239-.131-.369.323-.222-.392.011-.11-.376Z" fill="#fff"></path><path id="Trazado_10827" data-name="Trazado 10827" d="M10.8,2.136l-.392-.011.324.222-.132.369.311-.24.31.24-.131-.369.323-.222-.392.011-.11-.376Z" fill="#fff"></path><path id="Trazado_10828" data-name="Trazado 10828" d="M8.692,2.136,8.3,2.125l.323.222-.132.369.311-.24.31.24-.131-.369.323-.222-.392.011L8.8,1.76Z" fill="#fff"></path><path id="Trazado_10829" data-name="Trazado 10829" d="M6.579,2.136l-.391-.011.323.222-.132.369.311-.24.31.24-.13-.369.322-.222L6.8,2.136,6.69,1.76Z" fill="#fff"></path><path id="Trazado_10830" data-name="Trazado 10830" d="M4.467,2.136l-.392-.011.324.222-.132.369.311-.24.31.24-.131-.369.323-.222-.392.011-.11-.376Z" fill="#fff"></path><path id="Trazado_10831" data-name="Trazado 10831" d="M2.354,2.136l-.392-.011.323.222-.131.369.311-.24.31.24-.131-.369.323-.222-.392.011-.11-.376Z" fill="#fff"></path><path id="Trazado_10832" data-name="Trazado 10832" d="M11.861,1.256l-.391-.011.323.222-.132.369.311-.24.31.24-.131-.369.323-.222-.392.011L11.972.88Z" fill="#fff"></path><path id="Trazado_10833" data-name="Trazado 10833" d="M9.748,1.256l-.391-.011.323.222-.132.369.311-.24.31.24-.13-.369.323-.222-.393.011L9.859.88Z" fill="#fff"></path><path id="Trazado_10834" data-name="Trazado 10834" d="M7.636,1.256l-.392-.011.324.222-.132.369.311-.24.31.24-.131-.369.323-.222-.392.011L7.747.88Z" fill="#fff"></path><path id="Trazado_10835" data-name="Trazado 10835" d="M5.523,1.256l-.391-.011.323.222-.132.369.311-.24.31.24-.131-.369.323-.222-.392.011L5.634.88Z" fill="#fff"></path><path id="Trazado_10836" data-name="Trazado 10836" d="M3.41,1.256l-.391-.011.323.222-.132.369.311-.24.31.24L3.7,1.467l.323-.222-.392.011L3.521.88Z" fill="#fff"></path><path id="Trazado_10837" data-name="Trazado 10837" d="M1.3,1.256.906,1.245l.324.222L1.1,1.836l.311-.24.31.24-.131-.369.323-.222-.392.011L1.409.88Z" fill="#fff"></path></g></svg>